<svg width="24" height="24" viewBox="0 0 24 24" fill="none" xmlns="http://www.w3.org/2000/svg">
<path fill-rule="evenodd" clip-rule="evenodd" d="M22.3125 3.84375C22.3125 3.37734 22.6898 3 23.1562 3C23.6227 3 24 3.37734 24 3.84375V8.15625C24 8.62266 23.6227 9 23.1562 9H18.8438C18.3773 9 18 8.62266 18 8.15625C18 7.68984 18.3773 7.3125 18.8438 7.3125H21.1875C20.3836 5.73516 19.1859 4.39219 17.7 3.40547C16.0102 2.28047 14.0391 1.6875 12 1.6875C9.38203 1.6875 6.88594 2.66953 4.96875 4.45547C3.06562 6.22969 1.91016 8.63203 1.71562 11.2195C1.68047 11.6625 1.3125 12 0.874219 12C0.853125 12 0.832031 12 0.810938 11.9977C0.346875 11.9625 -0.00234375 11.557 0.0328125 11.093C0.260156 8.08125 1.60312 5.28516 3.82031 3.22031C6.04688 1.14375 8.95312 0 12 0C14.3719 0 16.6664 0.691406 18.6328 1.99922C20.1422 3.00234 21.3961 4.31953 22.3125 5.85938V3.84375ZM22.282 12.7805C22.3172 12.3164 22.7227 11.9672 23.1867 12.0023C23.6531 12.0375 24 12.443 23.9648 12.907C23.7398 15.9187 22.3969 18.7148 20.1797 20.7797C17.9531 22.8562 15.0469 24 12 24C9.62578 24 7.33359 23.3086 5.36484 22.0008C3.85781 20.9977 2.60391 19.6805 1.6875 18.1406V20.1562C1.6875 20.6227 1.31016 21 0.84375 21C0.377344 21 0 20.6227 0 20.1562V15.8438C0 15.3773 0.377344 15 0.84375 15H5.15625C5.62266 15 6 15.3773 6 15.8438C6 16.3102 5.62266 16.6875 5.15625 16.6875H2.8125C3.61641 18.2648 4.81406 19.6078 6.3 20.5945C7.98984 21.7195 9.96094 22.3125 12 22.3125C14.618 22.3125 17.1141 21.3305 19.0289 19.5445C20.932 17.7703 22.0875 15.368 22.282 12.7805Z" fill="black"/>
</svg>
